<svg viewBox="0 0 231 231" preserveAspectRatio="xMidYMid meet" class=" logo" id="cdheaach" style="width: 100%; height: 100%;"><defs id="SvgjsDefs1120"></defs><g id="SvgjsG1121" featurekey="root" fill="#000000" transform="matrix(1,0,0,1,0,0)"></g><g id="SvgjsG1122" featurekey="container1" fill="#000" transform="matrix(2.2190202054366583,0,0,2.2190202054366583,0,0)"><path xmlns="http://www.w3.org/2000/svg" d="M0 0v104.1h104.1V0zm101.7 101.7H2.4V2.4h99.3z" fill=""></path></g><g id="SvgjsG1123" featurekey="text1" fill="#000" transform="matrix(4.086265854971782,0,0,4.086265854971782,48.57661875129493,63.525531952205)"><path d="M3.5 20.1 q-0.32 0.1 -0.4 0.08 t-0.22 -0.3 q-0.42 -1.12 -0.98 -2.59 t-1.12 -2.96 t-1.07 -2.86 t-0.83 -2.31 q0 -0.12 0.13 -0.15 t0.29 -0.02 t0.29 0.06 t0.13 0.11 q0.46 1.38 0.83 2.47 t0.75 2.14 t0.84 2.17 t1.1 2.56 q0.62 -2.36 1.05 -4.6 t0.68 -4.02 t0.37 -2.91 t0.16 -1.29 q0 -0.1 0.12 -0.14 t0.26 -0.04 t0.25 0.05 t0.11 0.13 q-0.06 0.44 -0.23 1.62 t-0.41 2.72 t-0.53 3.23 t-0.57 3.15 t-0.55 2.48 t-0.45 1.22 z M9.14 6.18 q0.12 0.12 0.17 0.26 t0.06 0.3 t0.01 0.37 t0.02 0.49 q1.04 0.56 2.24 1.14 t2.25 1.25 t1.83 1.47 t1.02 1.78 q0.2 1.22 -0.19 2.32 t-1.23 1.99 t-2.04 1.5 t-2.6 0.87 q-0.5 0.1 -0.97 0.06 t-0.86 -0.21 t-0.67 -0.47 t-0.4 -0.7 q-0.02 -0.24 0.07 -0.41 t0.19 -0.24 t0.16 -0.05 t-0.02 0.18 q0 0.42 0.16 0.67 t0.4 0.39 t0.5 0.21 t0.44 0.11 q-0.1 -0.62 -0.18 -1.55 t-0.17 -2 t-0.17 -2.2 t-0.16 -2.18 t-0.17 -1.92 t-0.17 -1.41 q-0.54 -0.24 -0.86 -0.41 t-0.55 -0.3 t-0.45 -0.23 t-0.56 -0.2 q-0.16 -0.2 -0.09 -0.32 t0.11 -0.34 q0.5 0.12 0.8 0.23 t0.51 0.22 t0.42 0.2 t0.57 0.17 q0 -0.18 -0.01 -0.27 t-0.02 -0.15 t-0.02 -0.11 t-0.01 -0.15 q0.1 -0.46 0.64 -0.36 z M9.84 13.2 q0.04 0.34 0.09 0.87 t0.1 1.14 t0.11 1.25 t0.1 1.2 t0.08 1 t0.06 0.64 q0.46 0.06 1.25 -0.16 t1.64 -0.75 t1.6 -1.37 t1.15 -2.04 q0.14 -0.92 -0.1 -1.66 t-0.73 -1.33 t-1.19 -1.06 t-1.47 -0.88 t-1.57 -0.76 t-1.5 -0.71 q0 0.18 0.04 0.58 t0.08 0.9 t0.08 1.04 t0.08 1 t0.07 0.76 t0.03 0.34 z M27.1 6.32 q-0.48 0.28 -1.39 0.62 t-1.96 0.68 t-2.11 0.69 t-1.84 0.67 q0.04 0.46 0.06 0.79 t0.05 0.72 t0.1 0.96 t0.21 1.53 q0.78 -0.34 1.26 -0.53 t1 -0.35 t1.23 -0.36 t1.93 -0.56 q0.1 0.02 0.24 0.13 t0.23 0.25 t0.09 0.28 t-0.14 0.22 q-0.84 0.1 -1.65 0.31 t-1.53 0.48 t-1.34 0.55 t-1.1 0.5 q0.04 0.94 0.21 1.82 t0.46 1.59 t0.68 1.17 t0.87 0.54 q0.22 0.04 0.62 0.07 t0.94 -0.13 t1.22 -0.59 t1.5 -1.33 q0.54 -0.48 0.78 -0.54 t0.06 0.18 q-0.54 0.58 -0.99 1.09 t-0.93 0.92 t-1.04 0.71 t-1.3 0.42 q-1.02 0.22 -1.7 -0.11 t-1.11 -1.08 t-0.69 -1.87 t-0.46 -2.48 q-0.34 0.04 -0.56 0.13 t-0.58 0.33 q-0.16 -0.02 -0.12 -0.17 t0.21 -0.36 t0.42 -0.44 t0.49 -0.39 q-0.12 -0.82 -0.23 -1.71 t-0.21 -1.7 t-0.15 -1.46 t-0.05 -0.99 l0.18 -0.09 t0.13 -0.05 t0.17 -0.03 t0.32 -0.03 q0.04 0.1 0.05 0.28 t0.01 0.32 q1.02 -0.26 1.84 -0.5 t1.6 -0.47 t1.58 -0.46 t1.76 -0.47 q0.16 -0.04 0.31 -0.01 t0.25 0.1 t0.14 0.13 t-0.02 0.08 z M31.299999999999997 20.1 q-0.32 0.1 -0.4 0.08 t-0.22 -0.3 q-0.42 -1.12 -0.98 -2.59 t-1.12 -2.96 t-1.07 -2.86 t-0.83 -2.31 q0 -0.12 0.13 -0.15 t0.29 -0.02 t0.29 0.06 t0.13 0.11 q0.46 1.38 0.83 2.47 t0.75 2.14 t0.84 2.17 t1.1 2.56 q0.62 -2.36 1.05 -4.6 t0.68 -4.02 t0.37 -2.91 t0.16 -1.29 q0 -0.1 0.12 -0.14 t0.26 -0.04 t0.25 0.05 t0.11 0.13 q-0.06 0.44 -0.23 1.62 t-0.41 2.72 t-0.53 3.23 t-0.57 3.15 t-0.55 2.48 t-0.45 1.22 z"></path></g></svg>
